<svg width="214" height="36" viewBox="0 0 564 96" fill="none" xmlns="http://www.w3.org/2000/svg">
<g clip-path="url(#clip0_1973_21191)">
<path d="M157.422 81.568C152.675 81.568 148.456 80.7709 144.501 79.1768C140.809 77.5826 137.382 75.4571 134.481 72.5344C131.844 69.8775 129.735 66.4235 128.152 62.4381C126.57 58.7184 125.779 54.4673 125.779 50.2162V49.9505C125.779 45.6994 126.57 41.7141 128.152 37.7287C129.735 34.009 131.844 30.5549 134.745 27.6323C137.382 24.9754 140.809 22.5842 144.765 20.7243C148.456 19.1302 152.675 18.0674 157.158 18.0674C159.795 18.0674 162.168 18.3331 164.278 18.5988C166.387 19.1302 168.497 19.3958 170.079 20.1929C171.925 20.7243 173.77 21.7871 175.352 22.8499C176.935 23.9126 178.517 24.9754 180.099 26.5696L173.243 34.5403C172.188 33.4776 170.87 32.6805 169.551 31.8834C168.233 31.0863 166.915 30.2893 165.86 29.7579C164.541 29.2265 163.223 28.6951 161.377 28.4294C159.795 27.898 157.949 27.898 156.103 27.898C153.466 27.898 150.83 28.4294 148.193 29.4922C145.82 30.555 143.71 32.1491 142.128 34.2747C140.546 36.1345 138.964 38.5257 137.909 41.1827C136.854 43.8396 136.327 46.4965 136.327 49.4192V50.4819C136.327 53.6702 136.854 56.3272 137.909 59.2498C138.964 61.9067 140.282 64.0323 142.128 66.1578C143.974 68.0177 146.083 69.6118 148.72 70.6746C151.357 71.7374 153.994 72.2687 157.158 72.2687C160.059 72.2687 162.696 71.7374 165.069 70.9403C167.706 70.1432 169.815 69.0804 171.661 67.4863V55.7958H156.103V46.4965H181.945V72.003C180.363 73.3315 178.78 74.66 176.935 75.7228C175.089 76.7855 173.243 77.8483 171.133 78.6454C169.024 79.4425 166.651 80.2395 164.278 80.7709C162.696 81.3023 160.059 81.568 157.422 81.568Z" fill="black"/>
<path d="M203.04 19.6611H192.492V80.5048H203.04V19.6611Z" fill="black"/>
<path d="M234.682 81.5679C231.254 81.5679 227.826 81.0365 224.926 79.708C222.025 78.3796 219.388 76.7854 217.279 74.6599C215.169 72.5343 213.587 69.8774 212.269 66.9548C210.95 64.0322 210.423 61.1095 210.423 57.9212V57.6555C210.423 54.2015 210.95 51.2789 212.269 48.3563C213.587 45.4337 215.169 42.7767 217.279 40.6512C219.388 38.5256 222.025 36.9315 224.926 35.603C227.826 34.2745 230.99 33.7432 234.682 33.7432C238.374 33.7432 241.538 34.2745 244.439 35.603C247.339 36.9315 249.976 38.5256 252.085 40.6512C254.195 42.7767 255.777 45.4337 257.096 48.3563C258.414 51.0132 258.941 54.2015 258.941 57.6555V57.9212C258.941 61.1095 258.414 64.2979 257.096 66.9548C255.777 69.8774 254.195 72.5343 252.085 74.6599C249.976 76.7854 247.339 78.3796 244.175 79.708C241.538 81.0365 238.374 81.5679 234.682 81.5679ZM234.946 72.5343C237.055 72.5343 238.901 72.0029 240.747 71.2059C242.329 70.4088 243.911 69.346 245.23 68.0176C246.548 66.6891 247.339 65.0949 247.866 63.2351C248.394 61.6409 248.658 59.5154 248.658 57.6555V57.3898C248.658 55.2643 248.13 53.4044 247.603 51.5446C247.075 49.9504 246.021 48.0906 244.702 46.7621C243.384 45.4337 242.065 44.3709 240.22 43.5738C238.637 42.7767 236.528 42.2453 234.418 42.2453C232.309 42.2453 230.463 42.7767 228.617 43.5738C226.771 44.3709 225.453 45.4337 224.135 46.7621C222.816 48.0906 222.025 49.419 221.498 51.5446C220.97 53.1387 220.707 55.2643 220.707 57.3898V57.6555C220.707 59.7811 221.234 61.3752 221.761 63.5008C222.289 65.0949 223.344 66.9548 224.662 68.2832C225.98 69.6117 227.299 70.6745 229.145 71.4716C230.99 72.0029 233.1 72.5343 234.946 72.5343Z" fill="black"/>
<path d="M292.429 81.5676C288.738 81.5676 285.573 80.7706 283.2 79.1764C280.563 77.5822 278.718 75.7224 277.135 73.3312V80.5049H266.588V19.3955H277.135V41.9794C278.718 39.5882 280.827 37.4626 283.2 35.8685C285.837 34.2743 288.738 33.2115 292.429 33.2115C295.066 33.2115 297.703 33.7429 300.34 34.8057C302.977 35.8685 305.086 37.4626 307.196 39.5882C309.042 41.7137 310.887 44.1049 311.942 47.0276C313.261 49.9502 313.788 53.4042 313.788 57.1239V57.3896C313.788 61.1093 313.261 64.5633 312.206 67.4859C310.887 70.4085 309.569 73.0655 307.459 74.9253C305.614 77.0509 303.24 78.645 300.604 79.7078C297.703 81.0363 295.066 81.5676 292.429 81.5676ZM290.056 72.5341C291.638 72.5341 293.484 72.0027 295.066 71.4713C296.648 70.9399 297.967 69.8772 299.285 68.5487C300.604 67.2202 301.395 65.8918 301.922 63.7662C302.449 61.9064 302.977 60.0465 302.977 57.6553V57.3896C302.977 55.264 302.449 53.1385 301.922 51.5443C301.395 49.6845 300.34 48.0903 299.285 46.7619C297.967 45.4334 296.648 44.3706 295.066 43.8393C293.484 43.3079 291.902 42.7765 290.056 42.7765C288.474 42.7765 286.628 43.3079 285.046 43.8393C283.464 44.3706 282.145 45.4334 280.827 46.7619C279.509 48.0903 278.717 49.4188 277.926 51.5443C277.399 53.1385 276.872 55.264 276.872 57.3896V57.6553C276.872 59.7808 277.399 61.9064 277.926 63.5005C278.454 65.3604 279.509 66.9545 280.827 68.283C282.145 69.6115 283.464 70.6742 285.046 71.2056C286.364 72.0027 288.21 72.5341 290.056 72.5341Z" fill="black"/>
<path d="M348.858 80.505V74.6598C347.276 76.5197 345.167 78.1138 343.057 79.4423C340.684 80.7707 337.783 81.3021 334.092 81.3021C331.982 81.3021 329.873 81.0364 328.027 80.505C326.181 79.9737 324.335 78.9109 323.017 77.8481C321.435 76.5197 320.38 75.1912 319.325 73.3313C318.534 71.7372 318.007 69.6116 318.007 67.2204V66.9547C318.007 64.2978 318.534 62.1722 319.589 60.3124C320.38 58.4525 321.698 56.8584 323.281 55.5299C324.863 54.2014 326.972 53.4044 329.082 52.873C331.455 52.3416 333.828 52.0759 336.465 52.0759C339.102 52.0759 341.475 52.3416 343.321 52.6073C345.167 53.1387 347.012 53.4044 348.858 54.2014V53.1387C348.858 49.9504 347.803 47.5591 345.958 45.965C344.112 44.3708 341.211 43.308 337.783 43.308C335.147 43.308 333.037 43.5737 330.928 44.1051C328.818 44.6365 326.972 45.4336 324.863 46.2307L322.226 37.7285C324.863 36.6657 327.236 35.6029 330.136 35.0716C332.773 34.5402 335.938 34.0088 339.629 34.0088C346.485 34.0088 351.495 35.6029 354.923 39.057C358.351 42.511 359.669 47.0277 359.669 53.4044V80.505H348.858ZM349.122 61.3752C347.804 60.8438 346.221 60.3124 344.376 60.0467C342.53 59.5153 340.684 59.5153 338.574 59.5153C335.147 59.5153 332.773 60.0467 330.928 61.3752C329.082 62.7036 328.291 64.2978 328.291 66.689V66.9547C328.291 69.0803 329.082 70.6744 330.928 72.0029C332.51 73.0656 334.619 73.597 337.256 73.597C338.838 73.597 340.684 73.3313 342.002 73.0656C343.321 72.8 344.639 72.0029 345.694 71.2058C346.749 70.4087 347.54 69.3459 348.331 68.2832C348.858 66.9547 349.122 65.6262 349.122 64.2978V61.3752Z" fill="black"/>
<path d="M379.182 19.6611H368.635V80.5048H379.182V19.6611Z" fill="black"/>
<path d="M390.785 19.6611H414.781C418.472 19.6611 421.637 20.1925 424.273 21.2553C426.91 22.3181 429.547 23.6465 431.393 25.2407C433.239 26.8348 435.085 29.2261 436.139 31.6173C437.194 34.2742 437.721 36.9312 437.721 39.8538V40.1195C437.721 43.5735 437.194 46.4961 435.876 49.153C434.557 51.81 432.975 53.9355 430.602 55.5297C428.492 57.1238 425.856 58.4523 422.955 59.5151C420.054 60.3121 416.89 60.8435 413.462 60.8435H401.333V80.5048H390.785V19.6611ZM413.462 51.5443C417.418 51.5443 420.582 50.4815 422.955 48.6217C425.328 46.4961 426.647 43.8392 426.647 40.6509V40.3852C426.647 36.6655 425.328 34.0085 422.955 32.4144C420.582 30.5545 417.418 29.7575 413.462 29.7575H401.069V51.5443H413.462Z" fill="black"/>
<path d="M471.737 80.505V74.6598C470.155 76.5197 468.046 78.1138 465.936 79.4423C463.827 80.7707 460.662 81.3021 456.971 81.3021C454.861 81.3021 452.752 81.0364 450.906 80.505C449.06 79.9737 447.214 78.9109 445.896 77.8481C444.314 76.5197 443.259 75.1912 442.204 73.3313C441.413 71.7372 440.886 69.6116 440.886 67.2204V66.9547C440.886 64.2978 441.413 62.1722 442.468 60.3124C443.259 58.4525 444.577 56.8584 446.159 55.5299C447.742 54.2014 449.851 53.4044 451.961 52.873C454.334 52.3416 456.707 52.0759 459.344 52.0759C461.981 52.0759 464.354 52.3416 466.2 52.6073C468.046 53.1387 469.891 53.4044 471.737 54.2014V53.1387C471.737 49.9504 470.682 47.5591 468.837 45.965C466.991 44.3708 464.09 43.308 460.662 43.308C458.025 43.308 455.916 43.5737 453.806 44.1051C451.697 44.6365 449.851 45.4336 447.742 46.2307L445.105 37.7285C447.742 36.6657 450.115 35.6029 453.015 35.0716C455.916 34.5402 458.817 34.0088 462.508 34.0088C469.364 34.0088 474.374 35.6029 477.802 39.057C481.23 42.511 482.548 47.0277 482.548 53.4044V80.505H471.737ZM471.737 61.3752C470.419 60.8438 468.837 60.3124 466.991 60.0467C465.145 59.5153 463.299 59.5153 461.19 59.5153C457.762 59.5153 455.389 60.0467 453.543 61.3752C451.961 62.7036 450.906 64.2978 450.906 66.689V66.9547C450.906 69.0803 451.697 70.6744 453.543 72.0029C455.125 73.0656 457.234 73.597 459.871 73.597C461.453 73.597 463.299 73.3313 464.618 73.0656C465.936 72.8 467.254 72.0029 468.309 71.2058C469.364 70.4087 470.155 69.3459 470.946 68.2832C471.473 66.9547 471.737 65.6262 471.737 64.2978V61.3752Z" fill="black"/>
<path d="M506.807 81.3022C503.379 81.3022 500.215 80.7708 496.787 79.708C493.359 78.3796 490.194 76.7854 487.558 74.6599L492.304 67.4862C494.941 69.346 497.314 70.6745 499.951 71.7373C502.588 72.5343 504.961 73.3314 507.334 73.3314C509.707 73.3314 511.289 72.8 512.608 72.0029C513.926 71.2059 514.454 69.8774 514.454 68.2832V68.0176C514.454 67.2205 514.19 66.4234 513.663 65.6263C513.135 64.8292 512.344 64.2979 511.289 64.0322C510.235 63.5008 509.18 63.2351 507.862 62.7037C506.543 62.1723 505.225 61.9066 504.17 61.3752C502.588 60.8438 500.742 60.3125 499.16 59.7811C497.578 59.2497 495.996 58.1869 494.413 57.1241C493.095 56.0614 491.777 54.7329 490.986 53.4044C490.194 52.076 489.667 49.9504 489.667 47.8249V47.5592C489.667 45.4337 490.194 43.5738 490.986 41.714C491.777 40.1198 492.831 38.5256 494.413 37.1972C495.996 35.8687 497.578 35.0716 499.687 34.5402C501.533 34.0089 503.643 33.7432 506.016 33.7432C508.916 33.7432 511.817 34.2746 514.717 35.3373C517.618 36.1344 520.519 37.4629 522.628 39.057L518.409 46.4964C516.3 45.168 513.926 44.1052 511.817 43.3081C509.444 42.511 507.598 41.9796 505.752 41.9796C503.643 41.9796 502.06 42.511 501.006 43.3081C499.951 44.1052 499.424 45.168 499.424 46.7621V47.0278C499.424 47.8249 499.687 48.622 500.215 49.1534C500.742 49.6847 501.533 50.2161 502.588 50.7475C503.379 51.2789 504.697 51.5446 506.016 52.3417C507.334 52.8731 508.653 53.1388 509.707 53.6701C511.289 54.2015 513.135 54.7329 514.717 55.53C516.3 56.0614 517.882 57.1241 519.2 58.1869C520.519 59.2497 521.837 60.5781 522.628 61.9066C523.419 63.5008 523.946 65.0949 523.946 67.2205V67.4862C523.946 69.8774 523.419 72.0029 522.628 73.8628C521.837 75.457 520.519 77.0511 518.936 78.3796C517.354 79.708 515.508 80.5051 513.399 81.0365C511.026 81.3022 508.916 81.3022 506.807 81.3022Z" fill="black"/>
<path d="M546.36 81.3022C542.933 81.3022 539.768 80.7708 536.34 79.708C532.912 78.3796 529.748 76.7854 527.111 74.6599L531.858 67.4862C534.495 69.346 536.868 70.6745 539.505 71.7373C542.141 72.5343 544.515 73.3314 546.888 73.3314C549.261 73.3314 550.843 72.8 552.162 72.0029C553.48 71.2059 554.007 69.8774 554.007 68.2832V68.0176C554.007 67.2205 553.744 66.4234 553.216 65.6263C552.689 64.8292 551.898 64.2979 550.843 64.0322C549.788 63.5008 548.734 63.2351 547.415 62.7037C546.097 62.1723 544.778 61.9066 543.724 61.3752C542.141 60.8438 540.296 60.3125 538.714 59.7811C537.131 59.2497 535.549 58.1869 533.967 57.1241C532.649 56.0614 531.33 54.7329 530.539 53.4044C529.748 51.8103 529.221 49.9504 529.221 47.8249V47.5592C529.221 45.4337 529.748 43.5738 530.539 41.714C531.33 40.1198 532.385 38.5256 533.967 37.1972C535.549 35.8687 537.131 35.0716 539.241 34.5402C541.087 34.0089 543.196 33.7432 545.569 33.7432C548.47 33.7432 551.371 34.2746 554.271 35.3373C557.172 36.1344 560.072 37.4629 562.182 39.057L557.963 46.4964C555.853 45.168 553.48 44.1052 551.371 43.3081C548.997 42.511 547.152 41.9796 545.306 41.9796C543.196 41.9796 541.614 42.511 540.559 43.3081C539.505 44.1052 538.977 45.168 538.977 46.7621V47.0278C538.977 47.8249 539.241 48.622 539.768 49.1534C540.296 49.6847 541.087 50.2161 542.141 50.7475C542.933 51.2789 544.251 51.5446 545.569 52.3417C546.888 52.8731 548.206 53.1388 549.261 53.6701C550.843 54.2015 552.689 54.7329 554.271 55.53C555.853 56.0614 557.435 57.1241 558.754 58.1869C560.072 59.2497 561.391 60.5781 562.182 61.9066C562.973 63.5008 563.5 65.0949 563.5 67.2205V67.4862C563.5 69.8774 562.973 72.0029 562.182 73.8628C561.391 75.457 560.072 77.0511 558.49 78.3796C556.908 79.708 555.062 80.5051 552.953 81.0365C550.843 81.3022 548.734 81.3022 546.36 81.3022Z" fill="black"/>
<path d="M64.6033 25.7722C71.1953 24.7094 77.5243 22.5839 83.3253 19.1299L84.9073 18.0671C76.7333 7.7051 64.8673 1.3285 51.9463 0C57.4843 7.9708 61.7033 16.473 64.6033 25.7722Z" fill="#E64948"/>
<path d="M47.4634 68.5488C44.0364 68.5488 40.6084 68.8145 37.4434 69.0802C40.0804 76.5196 43.2444 83.4276 47.4634 90.07C51.6824 83.4276 55.1104 76.5196 57.4844 69.0802C54.3194 68.5488 50.8914 68.5488 47.4634 68.5488Z" fill="#E64948"/>
<path d="M68.0312 51.2783C67.7682 55.2637 67.2402 59.2491 66.4492 63.5002C73.5692 64.8287 80.6882 67.2199 87.2812 70.9396L89.1262 72.2681C92.8182 65.8914 94.9272 58.9834 95.4552 51.544L68.0312 51.2783Z" fill="#E64948"/>
<path d="M87.0165 24.9749C80.6875 28.6946 73.8315 31.0858 66.1855 32.4143C66.9765 36.3997 67.7675 40.3851 67.7675 44.6362H94.9265C94.3995 37.4624 92.2905 30.2887 88.5985 23.9121L87.0165 24.9749Z" fill="#E64948"/>
<path d="M8.1743 24.9749L6.3285 23.6465C2.6369 30.0231 0.5274 36.9311 0 44.3705H27.1598C27.4235 40.3851 27.9509 36.3997 28.7419 32.1487C21.6224 31.3516 14.5028 28.6946 8.1743 24.9749Z" fill="#E64948"/>
<path d="M30.5881 69.877C23.9959 70.9397 17.6674 73.0653 11.8663 76.5193L10.0205 77.5821C17.9311 87.678 30.0608 94.321 42.981 95.649C37.708 87.678 33.489 79.1762 30.5881 69.877Z" fill="#E64948"/>
<path d="M47.4634 27.1002C50.8914 27.1002 54.3194 26.8345 57.4844 26.5688C54.8474 19.1294 51.6824 12.2214 47.4634 5.5791C43.2444 12.2214 39.8174 19.1294 37.4434 26.5688C40.8714 27.1002 44.2994 27.1002 47.4634 27.1002Z" fill="#E64948"/>
<path d="M83.325 76.5193C77.524 73.0653 71.195 70.9397 64.603 69.877C61.703 79.1762 57.484 87.678 52.21 95.649C65.394 94.321 77.26 87.944 85.171 77.5821L83.325 76.5193Z" fill="#E64948"/>
<path d="M11.6026 19.1299C17.4038 22.5839 23.7323 24.7094 30.3244 25.7722C33.489 16.473 37.708 7.9708 42.981 0C30.0608 1.3285 18.1948 7.7051 10.0205 18.0671L11.6026 19.1299Z" fill="#E64948"/>
<path d="M27.1598 51.2783H0C0.5274 58.452 2.6369 65.6257 6.3285 72.0024L8.1743 70.6739C14.5028 66.9542 21.3587 64.563 29.0056 63.2345C27.9509 59.2491 27.4235 55.2637 27.1598 51.2783Z" fill="#E64948"/>
</g>
<defs>
<clipPath id="clip0_1973_21191">
<rect width="563.5" height="95.65" fill="none"/>
</clipPath>
</defs>
</svg>
